<svg id="visual" viewBox="0 0 1440 1024" width="1440" height="1024" xmlns="http://www.w3.org/2000/svg" xmlns:xlink="http://www.w3.org/1999/xlink" version="1.1"><rect x="0" y="0" width="1440" height="1024" fill="#F6BEC1"></rect><path d="M0 444L26.7 467.7C53.3 491.3 106.7 538.7 160 564.5C213.3 590.3 266.7 594.7 320 566C373.3 537.3 426.7 475.7 480 446.3C533.3 417 586.7 420 640 448.2C693.3 476.3 746.7 529.7 800 540.5C853.3 551.3 906.7 519.7 960 498C1013.3 476.3 1066.7 464.7 1120 465.5C1173.3 466.3 1226.7 479.7 1280 505.8C1333.3 532 1386.7 571 1413.3 590.5L1440 610L1440 1025L1413.3 1025C1386.7 1025 1333.3 1025 1280 1025C1226.7 1025 1173.3 1025 1120 1025C1066.7 1025 1013.3 1025 960 1025C906.7 1025 853.3 1025 800 1025C746.7 1025 693.3 1025 640 1025C586.7 1025 533.3 1025 480 1025C426.7 1025 373.3 1025 320 1025C266.7 1025 213.3 1025 160 1025C106.7 1025 53.3 1025 26.7 1025L0 1025Z" fill="#f6bec1"></path><path d="M0 634L26.7 638.3C53.3 642.7 106.7 651.3 160 646.2C213.3 641 266.7 622 320 622C373.3 622 426.7 641 480 638.2C533.3 635.3 586.7 610.7 640 587.7C693.3 564.7 746.7 543.3 800 536.5C853.3 529.7 906.7 537.3 960 541.5C1013.3 545.7 1066.7 546.3 1120 548.2C1173.3 550 1226.7 553 1280 574.5C1333.3 596 1386.7 636 1413.3 656L1440 676L1440 1025L1413.3 1025C1386.7 1025 1333.3 1025 1280 1025C1226.7 1025 1173.3 1025 1120 1025C1066.7 1025 1013.3 1025 960 1025C906.7 1025 853.3 1025 800 1025C746.7 1025 693.3 1025 640 1025C586.7 1025 533.3 1025 480 1025C426.7 1025 373.3 1025 320 1025C266.7 1025 213.3 1025 160 1025C106.7 1025 53.3 1025 26.7 1025L0 1025Z" fill="#eeb3be"></path><path d="M0 615L26.7 640.5C53.3 666 106.7 717 160 743.3C213.3 769.7 266.7 771.3 320 747.7C373.3 724 426.7 675 480 664.5C533.3 654 586.7 682 640 694.3C693.3 706.7 746.7 703.3 800 692C853.3 680.7 906.7 661.3 960 657.8C1013.3 654.3 1066.7 666.7 1120 665.5C1173.3 664.3 1226.7 649.7 1280 657.7C1333.3 665.7 1386.7 696.3 1413.3 711.7L1440 727L1440 1025L1413.3 1025C1386.7 1025 1333.3 1025 1280 1025C1226.7 1025 1173.3 1025 1120 1025C1066.7 1025 1013.3 1025 960 1025C906.7 1025 853.3 1025 800 1025C746.7 1025 693.3 1025 640 1025C586.7 1025 533.3 1025 480 1025C426.7 1025 373.3 1025 320 1025C266.7 1025 213.3 1025 160 1025C106.7 1025 53.3 1025 26.7 1025L0 1025Z" fill="#e4a8bd"></path><path d="M0 765L26.7 785.2C53.3 805.3 106.7 845.7 160 865.8C213.3 886 266.7 886 320 879.7C373.3 873.3 426.7 860.7 480 844.7C533.3 828.7 586.7 809.3 640 807.3C693.3 805.3 746.7 820.7 800 828C853.3 835.3 906.7 834.7 960 845.5C1013.3 856.3 1066.7 878.7 1120 875.7C1173.3 872.7 1226.7 844.3 1280 845.3C1333.3 846.3 1386.7 876.7 1413.3 891.8L1440 907L1440 1025L1413.3 1025C1386.7 1025 1333.3 1025 1280 1025C1226.7 1025 1173.3 1025 1120 1025C1066.7 1025 1013.3 1025 960 1025C906.7 1025 853.3 1025 800 1025C746.7 1025 693.3 1025 640 1025C586.7 1025 533.3 1025 480 1025C426.7 1025 373.3 1025 320 1025C266.7 1025 213.3 1025 160 1025C106.7 1025 53.3 1025 26.7 1025L0 1025Z" fill="#d89ebd"></path><path d="M0 1002L26.7 990C53.3 978 106.7 954 160 945.8C213.3 937.7 266.7 945.3 320 931.7C373.3 918 426.7 883 480 881.5C533.3 880 586.7 912 640 910.7C693.3 909.3 746.7 874.7 800 880.7C853.3 886.7 906.7 933.3 960 941.7C1013.3 950 1066.7 920 1120 902.7C1173.3 885.3 1226.7 880.7 1280 878C1333.3 875.3 1386.7 874.7 1413.3 874.3L1440 874L1440 1025L1413.3 1025C1386.7 1025 1333.3 1025 1280 1025C1226.7 1025 1173.3 1025 1120 1025C1066.7 1025 1013.3 1025 960 1025C906.7 1025 853.3 1025 800 1025C746.7 1025 693.3 1025 640 1025C586.7 1025 533.3 1025 480 1025C426.7 1025 373.3 1025 320 1025C266.7 1025 213.3 1025 160 1025C106.7 1025 53.3 1025 26.7 1025L0 1025Z" fill="#ca95bd"></path></svg>